<svg width="664" height="664" xmlns="http://www.w3.org/2000/svg" xmlns:xlink="http://www.w3.org/1999/xlink" xml:space="preserve" overflow="hidden"><g transform="translate(-26 -68)"><path d="M98.625 690.5C58.584 690.5 26 657.917 26 617.875 26 604.823 29.4448 592.119 35.9698 581.117L208.981 281.457 209.67 280.404 295.081 132.296C308.05 109.885 332.143 95.9841 358 95.9841 383.857 95.9841 407.95 109.885 420.898 132.276L680.273 581.542C686.535 592.098 689.979 604.802 689.979 617.854 689.979 657.897 657.397 690.479 617.354 690.479Z" fill="#512BD4"/><path d="M551.597 441.5 378.547 441.5 358 405.816 298.445 302.674C295.75 298.114 292.021 294.183 287.037 291.468 272.305 282.754 253.217 287.942 244.503 302.896L331.029 153.067C336.419 143.746 346.389 137.504 358 137.504 369.611 137.504 379.581 143.746 384.971 153.067L471.092 302.269 471.294 302.674 471.72 303.302Z" fill="#7455DD"/><path d="M648.5 617.875C648.5 635.097 634.597 649 617.375 649L444.526 649C461.75 649 475.651 635.097 475.651 617.875 475.651 612.283 473.989 606.872 471.497 602.312L384.971 452.503 378.547 441.5 551.597 441.5 644.345 602.312C647.042 606.872 648.5 612.283 648.5 617.875Z" fill="#9780E5"/><path d="M475.651 617.875C475.651 635.097 461.75 649 444.526 649L271.474 649C288.698 649 302.599 635.097 302.599 617.875 302.599 612.283 301.14 606.872 298.445 602.312 298.445 602.11 298.243 601.908 298.04 601.685L270.644 557.084 209.021 456.434C203.408 447.316 193.459 441.5 182.456 441.5L378.547 441.5 384.971 452.503 387.605 457.062 471.497 602.312C473.989 606.872 475.651 612.283 475.651 617.875Z" fill="#B9AAEE"/><path d="M302.599 617.875C302.599 635.097 288.698 649 271.474 649L98.625 649C81.4009 649 67.5 635.097 67.5 617.875 67.5 612.283 68.959 606.872 71.6541 602.312L155.485 457.062C161.078 447.519 171.453 441.5 182.456 441.5 193.459 441.5 203.408 447.316 209.021 456.434L270.644 557.084 298.04 601.685C298.243 601.908 298.445 602.11 298.445 602.312 301.14 606.872 302.599 612.283 302.599 617.875Z" fill="#DCD5F6"/><path d="M378.547 441.5 182.456 441.5C171.453 441.5 161.078 447.519 155.485 457.062L164.401 441.5 243.672 304.335 244.503 303.099 244.503 302.896C253.217 287.942 272.305 282.754 287.037 291.468 292.021 294.183 295.75 298.114 298.445 302.674L358 405.816Z" fill="#9780E5"/></g></svg>